<svg xmlns="http://www.w3.org/2000/svg" xmlns:xlink="http://www.w3.org/1999/xlink" viewBox="0 0 837.63 176.83"><defs><style>.cls-1,.cls-2{fill:#fff;}.cls-2{fill-rule:evenodd;}.cls-3{fill:url(#linear-gradient);}.cls-4{fill:url(#linear-gradient-2);}.cls-5{fill:url(#linear-gradient-3);}.cls-6{fill:url(#linear-gradient-4);}.cls-7{fill:url(#linear-gradient-5);}.cls-8{fill:url(#linear-gradient-6);}.cls-9{fill:url(#linear-gradient-7);}.cls-10{fill:url(#linear-gradient-8);}.cls-11{fill:url(#linear-gradient-9);}.cls-12{fill:url(#linear-gradient-10);}.cls-13{fill:url(#linear-gradient-11);}.cls-14{fill:url(#linear-gradient-12);}</style><linearGradient id="linear-gradient" x1="-1031.18" y1="-4256.68" x2="-976.62" y2="-4256.68" gradientTransform="translate(4355.75 -686.27) rotate(-87.1)" gradientUnits="userSpaceOnUse"><stop offset="0" stop-color="#2698c7"/><stop offset="1" stop-color="#2f3a91"/></linearGradient><linearGradient id="linear-gradient-2" x1="-1013.21" y1="-4250.42" x2="-932.65" y2="-4250.42" gradientTransform="translate(4355.75 -686.27) rotate(-87.1)" gradientUnits="userSpaceOnUse"><stop offset="0" stop-color="#45489e"/><stop offset="1" stop-color="#633192"/></linearGradient><linearGradient id="linear-gradient-3" x1="-982.08" y1="-4309.06" x2="-982.08" y2="-4261.54" gradientTransform="translate(4355.75 -686.27) rotate(-87.1)" gradientUnits="userSpaceOnUse"><stop offset="0" stop-color="#2484c7"/><stop offset="1" stop-color="#2e3690"/></linearGradient><linearGradient id="linear-gradient-4" x1="-987.9" y1="-4261.65" x2="-948.3" y2="-4222.05" gradientTransform="translate(4355.75 -686.27) rotate(-87.1)" gradientUnits="userSpaceOnUse"><stop offset="0" stop-color="#575ca9"/><stop offset="1" stop-color="#8259a5"/></linearGradient><linearGradient id="linear-gradient-5" x1="-2687.38" y1="3169.26" x2="-2632.82" y2="3169.26" gradientTransform="translate(4069.54 -1162.69) rotate(33.15)" gradientUnits="userSpaceOnUse"><stop offset="0" stop-color="#6f489d"/><stop offset="1" stop-color="#922f80"/></linearGradient><linearGradient id="linear-gradient-6" x1="-3172.24" y1="-2911.58" x2="-3172.24" y2="-2823.66" gradientTransform="translate(4269.18 -1028.39) rotate(-56.85)" gradientUnits="userSpaceOnUse"><stop offset="0" stop-color="#e11f27"/><stop offset="1" stop-color="#bbb142"/></linearGradient><linearGradient id="linear-gradient-7" x1="-2644.1" y1="3164.28" x2="-2604.5" y2="3203.88" gradientTransform="translate(4069.54 -1162.69) rotate(33.15)" gradientUnits="userSpaceOnUse"><stop offset="0" stop-color="#f26428"/><stop offset="1" stop-color="#cb8c31"/></linearGradient><linearGradient id="linear-gradient-8" x1="-3105.34" y1="-2878.96" x2="-3204.28" y2="-2878.96" gradientTransform="translate(4269.18 -1028.39) rotate(-56.85)" gradientUnits="userSpaceOnUse"><stop offset="0" stop-color="#a8479a"/><stop offset="1" stop-color="#922f4c"/></linearGradient><linearGradient id="linear-gradient-9" x1="1333.34" y1="-4175.97" x2="1390.86" y2="-4195.23" gradientTransform="matrix(-0.45, -0.89, 0.89, -0.45, 4482.53, -575.86)" gradientUnits="userSpaceOnUse"><stop offset="0" stop-color="#86c440"/><stop offset="1" stop-color="#319345"/></linearGradient><linearGradient id="linear-gradient-10" x1="4260.7" y1="909.87" x2="4341.25" y2="909.87" gradientTransform="matrix(-0.89, 0.45, -0.45, -0.89, 4350.82, -1020.99)" gradientUnits="userSpaceOnUse"><stop offset="0" stop-color="#46b863"/><stop offset="1" stop-color="#308792"/></linearGradient><linearGradient id="linear-gradient-11" x1="4286" y1="898.64" x2="4325.6" y2="938.24" gradientTransform="matrix(-0.89, 0.45, -0.45, -0.89, 4350.82, -1020.99)" gradientUnits="userSpaceOnUse"><stop offset="0" stop-color="#5aba57"/><stop offset="1" stop-color="#209dad"/></linearGradient><linearGradient id="linear-gradient-12" x1="1311.29" y1="-4206.69" x2="1344.19" y2="-4207.96" gradientTransform="translate(2541.59 3853.03) rotate(-50.57)" xlink:href="#linear-gradient-10"/></defs><g id="Layer_2" data-name="Layer 2"><g id="Layer_1-2" data-name="Layer 1"><path class="cls-1" d="M278.27,99.88Q278.15,93,274,88.79a15.17,15.17,0,0,0-11-4.3q-7.11.09-11.27,4.19t-4.26,11.2q.1,7,4.31,11.14c2.81,2.76,6.54,4.18,11.22,4.24s8.35-1.48,11.07-4.24S278.21,104.54,278.27,99.88Zm-18.64,36.45c-17.49,0-34.67-16.8-34.67-36V33.89a1.45,1.45,0,0,1,.39-1,1.42,1.42,0,0,1,1.05-.39h18.23a1.64,1.64,0,0,1,1.12.39,1.36,1.36,0,0,1,.47,1v35c2.13-2.43,9.14-5.28,18.42-5.28q16.08.06,25.58,10T300,100q-.24,16.5-9.74,26.26t-25.58,10.09C260.58,136.31,259.63,136.33,259.63,136.33Z"/><path class="cls-2" d="M378,65.62a1.2,1.2,0,0,0-.47-.92,1.79,1.79,0,0,0-1.12-.37H358.16a1.53,1.53,0,0,0-1,.37,1.21,1.21,0,0,0-.45.92V98.3c-.41,6.12-1.76,10.4-4.08,12.84a10.31,10.31,0,0,1-7.75,3.62,10.19,10.19,0,0,1-8.32-3.86c-2.17-2.61-3.28-6.3-3.36-11.08V65.91a1.64,1.64,0,0,0-.39-1.12,1.36,1.36,0,0,0-1.05-.46H313.39a1.37,1.37,0,0,0-1,.41,1.67,1.67,0,0,0-.4,1.17V104.7c.13,9.54,3.6,31.31,31.23,31.31,30.54,0,34.8-19.75,34.8-33.38Z"/><path class="cls-2" d="M451.07,132.57a1.24,1.24,0,0,0,1-.4,1.6,1.6,0,0,0,.32-1V113.86a1.46,1.46,0,0,0-.38-1,1.25,1.25,0,0,0-.92-.4h-23.5L452.23,64.5a2.31,2.31,0,0,0,.36-1.81.93.93,0,0,0-.94-.63H397.71a1.19,1.19,0,0,0-.92.45,1.54,1.54,0,0,0-.38,1V80.91a1.29,1.29,0,0,0,.38,1,1.36,1.36,0,0,0,.92.32h22.07l-24.95,48.64a1.53,1.53,0,0,0,0,1.13q.19.56,1,.6Z"/><path class="cls-1" d="M522.62,94.9q-.12,6.91-4.27,11.09a15.19,15.19,0,0,1-11,4.3q-7.1-.09-11.27-4.19t-4.26-11.2c.08-4.66,1.51-8.38,4.32-11.14s6.54-4.18,11.21-4.24,8.35,1.48,11.07,4.24S522.56,90.24,522.62,94.9Zm-19-36c-17.48,0-34.67,16.79-34.67,36v66.42a1.42,1.42,0,0,0,.4,1,1.47,1.47,0,0,0,1.05.4H488.6a1.72,1.72,0,0,0,1.12-.4,1.33,1.33,0,0,0,.47-1v-35c2.13,2.42,9.14,5.28,18.42,5.28q16.08-.06,25.58-10t9.73-26.37q-.23-16.5-9.73-26.25T508.61,58.94C504.55,59,503.59,58.94,503.59,58.94Z"/><path class="cls-1" d="M579.74,30.41A1.37,1.37,0,0,0,578.29,29H559.92a1.37,1.37,0,0,0-1.45,1.44V131.62a1.44,1.44,0,0,0,.4,1,1.47,1.47,0,0,0,1,.4h18.37a1.47,1.47,0,0,0,1.05-.4,1.44,1.44,0,0,0,.4-1Z"/><path class="cls-2" d="M614.92,97.65q.12,6.9,4.28,11.09a15.1,15.1,0,0,0,11,4.29q7.1-.07,11.27-4.19t4.26-11.19c-.08-4.67-1.51-8.38-4.32-11.14s-6.54-4.18-11.21-4.24-8.35,1.47-11.07,4.24S615,93,614.92,97.65ZM629.34,61H643.4c11.78,0,25.31,13.2,25.31,33.65v36a1.14,1.14,0,0,1-.29,1,1.53,1.53,0,0,1-1.15.44H652.05a1.33,1.33,0,0,1-1-.39,2.71,2.71,0,0,1-.57-1l-2.3-5.6a22.89,22.89,0,0,1-8.06,6.35,25.2,25.2,0,0,1-10.77,2.27q-16-.07-25.39-10t-9.66-26.36q.23-16.5,9.66-26.25T629.34,61Z"/><path class="cls-2" d="M748.93,121.46a1.4,1.4,0,0,0,.3-1.11,1.68,1.68,0,0,0-.45-.9l-12.35-11.78a.85.85,0,0,0-.45-.25,3.13,3.13,0,0,0-.56,0,2.19,2.19,0,0,0-.84.15,1.65,1.65,0,0,0-.74.57,23.76,23.76,0,0,1-4.76,4.26q-3.33,2.42-9.61,2.64-7-.09-11.06-4.26t-4.17-11.27q.09-7.09,4.17-11.26T719.47,84A17.24,17.24,0,0,1,727.84,86a19.28,19.28,0,0,1,6.43,5.85,1.67,1.67,0,0,0,.67.57,1.74,1.74,0,0,0,.77.14,2.23,2.23,0,0,0,.5,0,1,1,0,0,0,.5-.25l13.65-11.21a1.15,1.15,0,0,0,.45-.92,2.51,2.51,0,0,0-.3-1.24A35.11,35.11,0,0,0,736.64,66.7,41.49,41.49,0,0,0,718.46,63a39.22,39.22,0,0,0-17,4.41,33.29,33.29,0,0,0-13,12.14q-5,8-5.19,19.93.22,16.52,10,26.31t26.23,10a39.15,39.15,0,0,0,17.37-3.68A30.49,30.49,0,0,0,748.93,121.46Z"/><path class="cls-2" d="M787.49,94.28A13.8,13.8,0,0,1,792.21,87c2.31-1.83,5.42-2.77,9.36-2.82s6.91,1,9.16,2.82a14,14,0,0,1,4.63,7.25Zm.58,14.55h48a1.44,1.44,0,0,0,1.58-1.58q-.27-22.75-10.06-32.88t-26-9.92q-16.5.24-26.24,10t-10,26.31q.23,16.62,10,26.37t26.44,10A55.18,55.18,0,0,0,818,134.86a27.68,27.68,0,0,0,12-7.34,1.49,1.49,0,0,0,.36-1.13,1.65,1.65,0,0,0-.5-1l-11.06-11.79a1.29,1.29,0,0,0-1-.43,1.8,1.8,0,0,0-.66.13,2.76,2.76,0,0,0-.77.45,18.09,18.09,0,0,1-5.19,2.64,24.6,24.6,0,0,1-7.89,1.24q-6.1-.06-9.82-2.44A13.84,13.84,0,0,1,788.07,108.83Z"/><path class="cls-3" d="M69,82.27l-7.55-8.36a7.49,7.49,0,0,1-.54,10.58l-24.35,22a12.16,12.16,0,0,0,16.31,18.05L68,110.87A20.55,20.55,0,0,0,69,82.27Z"/><path class="cls-4" d="M40.31,32.37a12.15,12.15,0,0,0-.87,17.18l22,24.36h0L69,82.27a20.55,20.55,0,0,1-1,28.6l9.23-8.33A31.86,31.86,0,0,0,79.49,57.6l-22-24.35A12.16,12.16,0,0,0,40.31,32.37Z"/><circle class="cls-5" cx="19.03" cy="77.22" r="19.03"/><path class="cls-6" d="M40.05,50c5.46,5.73,10.84,11.54,16.2,17.36,2.7,2.9,5.35,5.84,8,8.77l4,4.39A30.45,30.45,0,0,1,72,85.19a22.71,22.71,0,0,1,2.28,5.62,23,23,0,0,1,.56,6,23.55,23.55,0,0,1-1.19,5.94,21.81,21.81,0,0,1-2.87,5.31,29.84,29.84,0,0,1-4.2,4.28l-4.46,3.93-9,7.77,8.65-8.14,4.36-4a29.31,29.31,0,0,0,4-4.26,22.86,22.86,0,0,0,2.66-5.15,22.49,22.49,0,0,0,1.1-5.68,19.81,19.81,0,0,0-2.79-11.08,30,30,0,0,0-3.59-4.6l-4-4.42c-2.64-3-5.3-5.88-7.91-8.86C50.43,61.9,45.2,56,40.05,50Z"/><path class="cls-7" d="M117.72,58.84l11-2.31a7.51,7.51,0,0,1-8.87-5.8l-6.74-32.12a12.16,12.16,0,0,0-23.81,5l4.19,20A20.56,20.56,0,0,0,117.72,58.84Z"/><path class="cls-8" d="M175.27,59.19a12.16,12.16,0,0,0-14.4-9.4l-32.12,6.73h0l-11,2.31a20.56,20.56,0,0,1-24.2-15.28l2.55,12.17a31.85,31.85,0,0,0,37.68,24.6l32.11-6.74A12.16,12.16,0,0,0,175.27,59.19Z"/><path class="cls-9" d="M160.22,50.11c-7.7,1.83-15.43,3.55-23.16,5.26-3.87.87-7.74,1.67-11.61,2.51l-5.81,1.24a30.16,30.16,0,0,1-6,.85,22.14,22.14,0,0,1-6-.86,22.49,22.49,0,0,1-5.49-2.55,23.05,23.05,0,0,1-4.53-4,22,22,0,0,1-3.15-5.16,29.74,29.74,0,0,1-1.57-5.79l-1.15-5.82-2.2-11.67,2.68,11.57,1.29,5.79a29.09,29.09,0,0,0,1.67,5.61,23.32,23.32,0,0,0,3.1,4.9,22,22,0,0,0,4.36,3.81,19.92,19.92,0,0,0,11,3.17,28.7,28.7,0,0,0,5.77-.79L125.26,57c3.88-.79,7.75-1.62,11.64-2.37C144.66,53.06,152.43,51.53,160.22,50.11Z"/><circle class="cls-10" cx="146.61" cy="19.03" r="19.02"/><path class="cls-11" d="M113.08,111.89l-3.48,10.72a7.51,7.51,0,0,1,9.44-4.82l31.22,10.12a12.16,12.16,0,1,0,7.5-23.14l-19.39-6.29A20.58,20.58,0,0,0,113.08,111.89Z"/><path class="cls-12" d="M84.17,161.65a12.16,12.16,0,0,0,15.32-7.82l10.11-31.22h0l3.48-10.72a20.58,20.58,0,0,1,25.29-13.41l-11.83-3.83a31.87,31.87,0,0,0-40.08,20.46L76.35,146.33A12.16,12.16,0,0,0,84.17,161.65Z"/><path class="cls-13" d="M99.53,153.11c2.24-7.6,4.59-15.16,7-22.72,1.16-3.78,2.39-7.54,3.59-11.31l1.81-5.66a29.94,29.94,0,0,1,2.22-5.6,22.46,22.46,0,0,1,3.73-4.78,20.91,20.91,0,0,1,10.68-5.43,22.22,22.22,0,0,1,6-.17,30.51,30.51,0,0,1,5.8,1.51l5.63,1.9,11.22,3.9-11.37-3.43-5.68-1.76a28.66,28.66,0,0,0-5.69-1.34,23.37,23.37,0,0,0-5.79.25,20,20,0,0,0-10.17,5.27,21.69,21.69,0,0,0-3.51,4.58,28.8,28.8,0,0,0-2.19,5.4L111,119.36c-1.25,3.76-2.45,7.53-3.73,11.27C104.7,138.14,102.17,145.64,99.53,153.11Z"/><circle class="cls-14" cx="133.18" cy="157.81" r="19.02" transform="translate(-64.66 216.95) rotate(-66.48)"/></g></g></svg>