<svg xmlns="http://www.w3.org/2000/svg" xmlns:xlink="http://www.w3.org/1999/xlink" viewBox="0 0 1182.53 272.82"><defs><style>.cls-1{fill:#0c1b3a;}.cls-2{fill:url(#linear-gradient);}.cls-3{fill:url(#linear-gradient-2);}.cls-4{fill:#0245f5;}</style><linearGradient id="linear-gradient" x1="121.89" y1="222.88" x2="55.75" y2="235.6" gradientUnits="userSpaceOnUse"><stop offset="0" stop-color="#44d1e6"/><stop offset="1" stop-color="#00a6ff"/></linearGradient><linearGradient id="linear-gradient-2" x1="111.06" y1="-4.5" x2="59.54" y2="174.22" gradientUnits="userSpaceOnUse"><stop offset="0" stop-color="#7df4d9"/><stop offset="1" stop-color="#53deff"/></linearGradient></defs><g id="Layer_2" data-name="Layer 2"><g id="Layer_1-2" data-name="Layer 1"><path class="cls-1" d="M326.8,167.26c0,32.65-23.45,57.39-54.39,57.39a49.37,49.37,0,0,1-29.7-9.73,4.15,4.15,0,0,0-6.56,3h0c-.24,3.12-2.18,4.56-5.08,4.56h-16.9a9,9,0,0,1-9-9V60c0-4.94,4-17.18,9-17.18L234.44,51a9,9,0,0,1,9,9v53.18a4.15,4.15,0,0,0,6.36,3.52,43.7,43.7,0,0,1,23.86-6.83C304.56,109.87,326.8,134.6,326.8,167.26Zm-36.1,1.17c0-13-9.6-23.05-23.29-23.05-14.4,0-23.28,10.09-23.28,23.05,0,13.45,8.88,23,23.28,23C281.1,191.48,290.7,181.63,290.7,168.43Z"/><path class="cls-1" d="M460.55,123V219a7.19,7.19,0,0,1-7.2,7.19H435.43c-2.87,0-4.54-1.68-4.78-4.55l-.23-2.64a2.39,2.39,0,0,0-4.05-1.52c-6.53,6.56-16.31,10.87-28.25,10.87C368,228.3,346,207.67,346,176.73V123a7.2,7.2,0,0,1,7.2-7.2h22.95a7.2,7.2,0,0,1,7.2,7.2v45.86c0,13.92,8.14,23,19.16,23,12,0,19.88-8.88,19.88-23V123a7.19,7.19,0,0,1,7.19-7.2h23.8A7.2,7.2,0,0,1,460.55,123Z"/><path class="cls-1" d="M583.61,123v17.07c0,.12,0,.23,0,.35-.13.83-.72,4.34-2.2,5.82l-45.61,43.52a2.39,2.39,0,0,0,1.65,4.12h43.48c2.47.3,4.32,3.37,5,4.64a2.31,2.31,0,0,1,.27,1.09V219a7.19,7.19,0,0,1-7.2,7.19h-88.3a7.2,7.2,0,0,1-7.2-7.19V201.79a8.1,8.1,0,0,1,2.66-6l45.8-43.63a2.39,2.39,0,0,0-1.65-4.13H492.36a7.19,7.19,0,0,1-7.2-7.19V123a7.2,7.2,0,0,1,7.2-7.2h84.06A7.19,7.19,0,0,1,583.61,123Z"/><path class="cls-1" d="M729.81,170.94c0,32.61-22.24,57.3-53.18,57.3a43.56,43.56,0,0,1-26.41-8.59,2.39,2.39,0,0,0-3.8,1.93v44a7.19,7.19,0,0,1-7.2,7.19h-23.8a7.2,7.2,0,0,1-7.2-7.19V123a7.2,7.2,0,0,1,7.2-7.2h20.12c2.9,0,4.83,1.44,5.08,4.56l.23,2.19a2.39,2.39,0,0,0,3.86,1.62,48.64,48.64,0,0,1,30.71-10.53C706.36,113.65,729.81,138.34,729.81,170.94Zm-38.71,0c0-13.21-9.6-23-23.28-23-14.41,0-23.29,9.6-23.29,23,0,13,8.88,23,23.29,23C681.5,194,691.1,183.94,691.1,171Z"/><path class="cls-1" d="M750.81,219V61.9A7.19,7.19,0,0,1,758,54.7h23.81A7.19,7.19,0,0,1,789,61.9V219a7.19,7.19,0,0,1-7.19,7.19H758A7.19,7.19,0,0,1,750.81,219Z"/><path class="cls-1" d="M931.59,123V219a7.2,7.2,0,0,1-7.2,7.19H902.56c-2.88,0-4.79-1.44-5-4.55l-.4-3.48a2.4,2.4,0,0,0-4-1.48,42.87,42.87,0,0,1-29.65,11.67c-30.7,0-52.77-24.7-52.77-57.32s23.26-57.33,54-57.33a49.11,49.11,0,0,1,27.29,8,2.38,2.38,0,0,0,3.65-1.53h0q.72-4.32,5-4.32h23.75A7.2,7.2,0,0,1,931.59,123Zm-36.43,48c-.24-13.45-8.88-23-23.29-23-13.68,0-23.28,9.84-23.28,23,0,13,9.6,23,23.28,23C886.28,194,895.4,183.94,895.16,171Z"/><path class="cls-1" d="M952.78,171c0-32.17,26.17-57.38,61.22-57.38,19.2,0,31.21,5.52,37.93,9.84,2.64,1.68,3.12,4.08,1.44,7.44l-10.08,19.69c-1.45,2.64-4.09,3.12-7,1.68a37.41,37.41,0,0,0-17.76-4.32c-16.33,0-26.89,9.6-26.89,23s10.56,23,26.89,23a37.21,37.21,0,0,0,18.48-4.56c2.64-1.44,5-1,6.49,1.92l10.08,19.69q2.16,4-1.44,6.48c-3.84,2.64-16.33,10.8-38.17,10.8C979,228.35,952.78,203.15,952.78,171Z"/><path class="cls-1" d="M1182.29,176.6c-.48,2.88-1.92,4.56-4.8,4.56H1109.6a2.4,2.4,0,0,0-1.93,3.81c4.9,6.93,13.79,11.8,25.64,11.8a37.51,37.51,0,0,0,23.53-7.69c2.64-1.92,5-1.44,6.72,1.44l10.33,18.73a4.74,4.74,0,0,1-1.2,6.72c-7,5.52-20.89,12.49-43.7,12.49-35.29,0-61.7-25.21-61.7-57.38s24.49-57.38,58.58-57.38c34.81,0,56.66,25.45,56.66,58.58A27.56,27.56,0,0,1,1182.29,176.6Zm-75.7-21.81a2.4,2.4,0,0,0,2.15,3.46h37.78l-.24-1c-1.92-7.93-9.12-14.17-19-14.17C1117.77,143.12,1110.48,146.68,1106.59,154.79Z"/><path class="cls-2" d="M118.31,198.22a43.22,43.22,0,0,0-4.34-7.86C7.41,226.49,15.92,223.59,14.71,224c-.56.21-7.1,2-7.1,7.94a8.06,8.06,0,0,0,3.14,6.39c.29.11,41.64,16.89,54.23,22,6.86,2.52,12.35,6.33,26.3,2.25,15.19-4.44,23-17.09,23.22-17.47C123.75,231.2,123.63,210.39,118.31,198.22Z"/><path class="cls-3" d="M152.13,24.14A23.42,23.42,0,0,0,151,16.91,24.11,24.11,0,0,0,136.92,1.72v0h-.06A23.31,23.31,0,0,0,128,0a24,24,0,0,0-6.77,1C116.75,2.45,12.57,37.53,12.42,37.6a7.94,7.94,0,0,0-4.58,5.55A7.9,7.9,0,0,0,8,47.34a8,8,0,0,0,4.52,5c.29.15-.32-.15,2.73,1.12C47.61,66.62,11.86,52.13,60.85,72l9.74,3.93,5.47,2.23v0a63.76,63.76,0,0,1,15.22,10c1,.86,2,1.8,2.94,2.74.66.66,1.32,1.34,1.93,2h.15a105.56,105.56,0,0,1,10.19,12.93c.51.73,1,1.49,1.47,2.28a104.55,104.55,0,0,1,7.94,15.21c5.72,13.73,5.8,20.06,5.8,24.06,0,9.29.3,14-2.33,21.58a41.51,41.51,0,0,1-5.4,10.72,45.47,45.47,0,0,1-3.55,4.49,10.07,10.07,0,0,1-.79.81,41.32,41.32,0,0,1,4.34,5.3s22.63-7.67,22.95-7.83a24.17,24.17,0,0,0,8.13-5.35,24.3,24.3,0,0,0,7.08-17.07v-136Z"/><path class="cls-4" d="M121.7,147.46c0-1.41.42-9.13-5.8-24.06A104.55,104.55,0,0,0,108,108.19c-.48-.79-1-1.55-1.47-2.28A105.56,105.56,0,0,0,96.3,93h-.15c-.61-.69-1.27-1.37-1.93-2-.94-.94-1.93-1.88-2.94-2.74a63.76,63.76,0,0,0-15.22-10c-.62-.34-.61-.31-29.31-11.92l-1.11-.45-8-3.25-22.39-9c-3.05-1.27-2.44-1-2.73-1.12a8,8,0,0,1-4.52-5,7.9,7.9,0,0,1-.12-4.19A8.07,8.07,0,0,1,10,39.27a7.82,7.82,0,0,1,2-1.45C5.11,39.64,0,44.42,0,51.9V227.42a9.81,9.81,0,0,0,5.89,9l.25.1,4.61,1.86a7.35,7.35,0,0,1-1.14-1.16,8.38,8.38,0,0,1-.52-.66A7.94,7.94,0,0,1,7.61,232c0-5.17,4.9-7.16,7.1-7.94,2.8-1,99.26-33.67,99.26-33.67a41.32,41.32,0,0,0-4.34-5.3,10.07,10.07,0,0,0,.79-.81,45.47,45.47,0,0,0,3.55-4.49,41.51,41.51,0,0,0,5.4-10.72C122.1,161.17,121.7,155.72,121.7,147.46Z"/></g></g></svg>