<svg width="24" height="24" viewBox="0 0 24 24" fill="none" xmlns="http://www.w3.org/2000/svg">
<path d="M8.92308 7.89744C8.92308 8.46388 8.46388 8.92308 7.89744 8.92308C7.33099 8.92308 6.8718 8.46388 6.8718 7.89744C6.8718 7.33099 7.33099 6.8718 7.89744 6.8718C8.46388 6.8718 8.92308 7.33099 8.92308 7.89744Z" fill="#030D45"/>
<path fill-rule="evenodd" clip-rule="evenodd" d="M12 3.53846C9.83082 3.53846 6.86615 3.73753 5.01495 3.88095C4.40616 3.92811 3.92811 4.40616 3.88095 5.01495C3.73753 6.86615 3.53846 9.83082 3.53846 12C3.53846 13.7395 3.66648 15.9906 3.79116 17.7688L10.7281 12.2192C12.5558 10.7571 15.165 10.8013 16.942 12.3245L20.3628 15.2566C20.4208 14.1261 20.4615 12.9816 20.4615 12C20.4615 9.83082 20.2625 6.86615 20.1191 5.01495C20.0719 4.40616 19.5938 3.92811 18.985 3.88095C17.1338 3.73753 14.1692 3.53846 12 3.53846ZM21.8094 16.8932C21.9111 15.2951 22 13.4766 22 12C22 9.76547 21.7964 6.74819 21.6529 4.89612C21.5472 3.53141 20.4686 2.45281 19.1039 2.34708C17.2518 2.2036 14.2345 2 12 2C9.76547 2 6.74819 2.2036 4.89612 2.34708C3.53141 2.45281 2.45281 3.53141 2.34708 4.89612C2.2036 6.74819 2 9.76547 2 12C2 14.2345 2.2036 17.2518 2.34708 19.1039C2.45281 20.4686 3.53141 21.5472 4.89612 21.6529C6.74819 21.7964 9.76547 22 12 22C14.2345 22 17.2518 21.7964 19.1039 21.6529C20.4686 21.5472 21.5472 20.4686 21.6529 19.1039C21.7013 18.4796 21.7565 17.7228 21.8084 16.9083C21.8088 16.9033 21.8091 16.8982 21.8094 16.8932ZM20.2487 17.1851L15.9408 13.4926C14.7249 12.4504 12.9397 12.4202 11.6892 13.4206L4.08589 19.5032C4.07529 19.5117 4.06454 19.5199 4.05364 19.5277C4.25321 19.8594 4.60434 20.0872 5.01495 20.1191C6.86615 20.2625 9.83082 20.4615 12 20.4615C14.1692 20.4615 17.1338 20.2625 18.985 20.1191C19.5938 20.0719 20.0719 19.5938 20.1191 18.985C20.1597 18.4601 20.2049 17.8456 20.2487 17.1851Z" fill="#030D45"/>
</svg>
