<svg width="24" height="24" viewBox="0 0 24 24" fill="none" xmlns="http://www.w3.org/2000/svg">
<path fill-rule="evenodd" clip-rule="evenodd" d="M20.4861 3.83591C20.5646 3.63418 20.3658 3.43542 20.1641 3.51387L3.65132 9.9355C3.44342 10.0164 3.43878 10.3088 3.64401 10.3963L9.98371 13.0965C10.3976 13.2728 10.7272 13.6024 10.9035 14.0163L13.6037 20.356C13.6912 20.5612 13.9836 20.5566 14.0645 20.3487L20.4861 3.83591ZM19.6231 2.12267C21.0352 1.57351 22.4265 2.96482 21.8773 4.37694L15.4557 20.8897C14.8898 22.345 12.8423 22.3775 12.2304 20.9409L9.53018 14.6012C9.50499 14.5421 9.4579 14.495 9.39878 14.4698L3.05907 11.7696C1.62248 11.1577 1.655 9.11025 3.1103 8.5443L19.6231 2.12267Z" fill="#030D45"/>
</svg>
